/* XPM */
static char *df4f9d620bd34575bfc6feb25968055d[] = {
/* columns rows colors chars-per-pixel */
"32 32 53 1 ",
"  c #341B3E",
". c #3C1B3D",
"X c #4C1C36",
"o c #441C3B",
"O c #4C1D3B",
"+ c #551D35",
"@ c #5C1E35",
"# c #531E3A",
"$ c #5D1F39",
"% c #621F35",
"& c #681E32",
"* c #4F203F",
"= c #54203E",
"- c #5C203C",
"; c #632037",
": c #6B2135",
"> c #64213A",
", c #6B2239",
"< c #732136",
"1 c #7A2336",
"2 c #73233A",
"3 c #7B2439",
"4 c #1D1E54",
"5 c #161F5A",
"6 c #1C1F58",
"7 c #261B46",
"8 c #2C1B45",
"9 c #241C4C",
"0 c #2B1E4C",
"q c #341C42",
"w c #3C1F45",
"e c #331F4A",
"r c #231F53",
"t c #291F51",
"y c #1E2057",
"u c #16215E",
"i c #1A205B",
"p c #212057",
"a c #132163",
"s c #431F42",
"d c #4A1F41",
"f c #852437",
"g c #83263A",
"h c #8C273A",
"j c #8D283C",
"k c #91273B",
"l c #93283B",
"z c #9B2A3D",
"x c #A32B3E",
"c c #A92C3F",
"v c #AD2D40",
"b c #B22E42",
"n c None",
/* pixels */
"nnnnnnnnnnnnnnnnnnnnnnnnnnnnnnnn",
"nnnnnnnnnnnnnnnnnnnnnnnnnnnnnnnn",
"nnnnbbnnnnnnnnvccxnnnnnnnn32nnnn",
"nnnbbbbnnnbbvvccxxxzznnnn332,nnn",
"nnbbbbbbbbvvvvcxxzzzkjjn33<:,%nn",
"nnbbbbbbbbvvvcccxzzlkjgg32,,>$nn",
"nnnbbbbbvvvvxxczzzlkjgg33,,>$nnn",
"nnnnbbbbvcvcnnnnnnnngg322,>-nnnn",
"nnnnbbvvvvnnnnnnnnnnn322,>-nnnnn",
"nnnnvbvvcnnnnnnnnnnnnnn,>--=nnnn",
"nnnbvvvcnnnnnnnnnnnnnnn>--=*nnnn",
"nnnbcvccnnnnnnnnnnnnnnnn-=*dsnnn",
"nnnvvccnnnnnnnnnnnnnnnnnn=dssnnn",
"nnnccccnnnnnnnnnnnnnnnnnndswwnnn",
"nncccvznnnnnnnnnnnnnnnnnnswwennn",
"nnvcxzznnnnnnnnnnnnnnnnnnwwwennn",
"nnxxxzznnnnnnnnnnnnnnnnnnweetnnn",
"nnxxzzlnnnnnnnnnnnnnnnnnneeetnnn",
"nnnzzlknnnnnnnnnnnnnnnnnne0ttnnn",
"nnnzlljnnnnnnnnnnnnnnnnnntttpnnn",
"nnnljhhfnnnnnnnnnnnnnnnnttrrrnnn",
"nnnhhh33nnnnnnnnnnnnnnntttppnnnn",
"nnnnff3<<nnnnnnnnnnnnnnttrpynnnn",
"nnnn13<:,;nnnnnnnnnnntrrrppnnnnn",
"nnnn1<<:;$+#nnnnnnnn99rryiiunnnn",
"nnn1<::;$+#Oo.. q800trr6i5iiannn",
"nn1<::%+++Xoo.qq8879r446iiuaaann",
"nn<::%$+XXo..qq80799446n5aaaaann",
"nnn&%@+nnnn.  8879945nnnnaaaannn",
"nnnn@+nnnnnnnn8799nnnnnnnnaannnn",
"nnnnnnnnnnnnnnnnnnnnnnnnnnnnnnnn",
"nnnnnnnnnnnnnnnnnnnnnnnnnnnnnnnn"
};
