/* XPM */
static char *fad5230f22894341afae32f58ab59c5c[] = {
/* columns rows colors chars-per-pixel */
"128 128 65 1 ",
"  c #2E1A3E",
". c #3F1A37",
"X c #341B3E",
"o c #3C1B3C",
"O c #451B37",
"+ c #4C1C37",
"@ c #431C3A",
"# c #4C1E3B",
"$ c #541D35",
"% c #5B1E35",
"& c #531E3A",
"* c #5B1F38",
"= c #631F35",
"- c #691F33",
"; c #601F38",
": c #4F203F",
"> c #5F2037",
", c #54203E",
"< c #5C203B",
"1 c #652037",
"2 c #6C2136",
"3 c #64213A",
"4 c #6C223A",
"5 c #742236",
"6 c #7B2336",
"7 c #742339",
"8 c #7C2439",
"9 c #1E1C4E",
"0 c #1D1E54",
"q c #151F5C",
"w c #1A1F58",
"e c #251B46",
"r c #2C1B44",
"t c #241D4C",
"y c #2B1E4D",
"u c #341C43",
"i c #3B1E45",
"p c #331E4A",
"a c #391F48",
"s c #231F53",
"d c #291F50",
"f c #1E2057",
"g c #16205E",
"h c #1B205A",
"j c #212056",
"k c #121F65",
"l c #0F2064",
"z c #132163",
"x c #431F42",
"c c #4A1F40",
"v c #4C2040",
"b c #822437",
"n c #8A2537",
"m c #84263A",
"M c #8A273A",
"N c #8E283B",
"B c #92273B",
"V c #94283C",
"C c #9C2A3D",
"Z c #A42B3E",
"A c #A92D3F",
"S c #A72C40",
"D c #AD2D40",
"F c #B22F42",
"G c None",
/* pixels */
"GGGGGGGGGGGGGGGGGGGGGGGGGGGGGGGGGGGGGGGGGGGGGGGGGGGGGGGGGGGGGGGGGGGGGGGGGGGGGGGGGGGGGGGGGGGGGGGGGGGGGGGGGGGGGGGGGGGGGGGGGGGGGGGG",
"GGGGGGGGGGGGGGGGGGGGGGGGGGGGGGGGGGGGGGGGGGGGGGGGGGGGGGGGGGGGGGGGGGGGGGGGGGGGGGGGGGGGGGGGGGGGGGGGGGGGGGGGGGGGGGGGGGGGGGGGGGGGGGGG",
"GGGGGGGGGGGGGGGGGGGGGGGGGGGGGGGGGGGGGGGGGGGGGGGGGGGGGGGGGGGGGGGGGGGGGGGGGGGGGGGGGGGGGGGGGGGGGGGGGGGGGGGGGGGGGGGGGGGGGGGGGGGGGGGG",
"GGGGGGGGGGGGGGGGGGGGGGGGGGGGGGGGGGGGGGGGGGGGGGGGGGGGGGGGGGGGGGGGGGGGGGGGGGGGGGGGGGGGGGGGGGGGGGGGGGGGGGGGGGGGGGGGGGGGGGGGGGGGGGGG",
"GGGGGGGGGGGGGGGGGGGGGGGGGGGGGGGGGGGGGGGGGGGGGGGGGGGGGGGGGGGGGGGGGGGGGGGGGGGGGGGGGGGGGGGGGGGGGGGGGGGGGGGGGGGGGGGGGGGGGGGGGGGGGGGG",
"GGGGGGGGGGGGGGGGGGGGGGGGGGGGGGGGGGGGGGGGGGGGGGGGGGGGGGGGGGGGGGGGGGGGGGGGGGGGGGGGGGGGGGGGGGGGGGGGGGGGGGGGGGGGGGGGGGGGGGGGGGGGGGGG",
"GGGGGGGGGGGGGGGGGGGGGGGGGGGGGGGGGGGGGGGGGGGGGGGGGGGGGGGGGGGGGGGGGGGGGGGGGGGGGGGGGGGGGGGGGGGGGGGGGGGGGGGGGGGGGGGGGGGGGGGGGGGGGGGG",
"GGGGGGGGGGGGGGGGGGGGFFGGGGGGGGGGGGGGGGGGGGGGGGGGGGGGGGGGGGGGGGGGGGGGGGGGGGGGGGGGGGGGGGGGGGGGGGGGGGGGGGGGGG88GGGGGGGGGGGGGGGGGGGG",
"GGGGGGGGGGGGGGGGGGGFFFFGGGGGGGGGGGGGGGGGGGGGGGGGGGGGGGGGGGGGGGGGGGGGGGGGGGGGGGGGGGGGGGGGGGGGGGGGGGGGGGGGG8888GGGGGGGGGGGGGGGGGGG",
"GGGGGGGGGGGGGGGGGGFFFFFFGGGGGGGGGGGGGGGGGGGGGGGGGGGGGGGGGGGGGGGGGGGGGGGGGGGGGGGGGGGGGGGGGGGGGGGGGGGGGGGGm88878GGGGGGGGGGGGGGGGGG",
"GGGGGGGGGGGGGGGGGFFFFFFFFGGGGGGGGGGGGGGGGGGGGGGGGGGGGDDADDDDAAAAAAZAZZZZZZGGGGGGGGGGGGGGGGGGGGGGGGGGGGG78888887GGGGGGGGGGGGGGGGG",
"GGGGGGGGGGGGGGGGFFFFFFFFFFGGGGGGGGGGGGGGGGGGGGGGGDFDDFDDAADAAAAASZAZZZZZZZZCZCGGGGGGGGGGGGGGGGGGGGGGGGNm88877777GGGGGGGGGGGGGGGG",
"GGGGGGGGGGGGGGGFFFFFFFFFFFFGGGGGGGGGGGGGGGGGGGFDFDFDDDADDDFAAAAAAAZZZZZZZZZCCCCCSNGGGGGGGGGGGGGGGGGGGmN7888777747GGGGGGGGGGGGGGG",
"GGGGGGGGGGGGGGFFFFFFFFFFFFFFGGGGGGGGGGGGGGGFFFDFDFDFDDDDDAAAAAAAAZZZZZZCCCZZCCCCNSSNGGGGGGGGGGGGGGGG8m7m8888777744GGGGGGGGGGGGGG",
"GGGGGGGGGGGGGFFFFFFFFFFFFFFFFGGGGGGGGGGGGFFFFDDFDDDDDDSSSAAAAAAZAZZZZZZZZCCCCCCCNVSNSNGGGGGGGGGGGGGNm88788777747444GGGGGGGGGGGGG",
"GGGGGGGGGGGGFFFFFFFFFFFFFFFFFFGGGGGGGGGFFFFDFDFFFDDDDDDDAAAAAAZAZZZZZZCZCZCCCCCCSNNNSNNNSGGGGGGGGGN78888777777444443GGGGGGGGGGGG",
"GGGGGGGGGGGFFFFFFFFFFFFFFFFFFFFGGGGGGFFFFFDFFDFDDDDDDDDAAAAAAZSZZZZZZZCZCCCCCCCVVVVVNNVNNNGGGGGGGmm88887657572424-41=GGGGGGGGGGG",
"GGGGGGGGGGFFFFFFFFFFFFFFFFFFFFFFGGGFFFFFFFFDDDDDFADSAADAASZAZSZSZZZZCZZCSCCCCVCCVCVVNVNNNNNNGGGGmm8m886677575722-4411=GGGGGGGGGG",
"GGGGGGGGGFFFFFFFFFFFFFFFFFFFFFFFFFFFFFFFDFDFDDDDAAADDAAAAAZASZSZZZZZZZCCSVCCCCCVVVNVNNNN7NNNNNGN8m888876775442244411%33GGGGGGGGG",
"GGGGGGGGFFFFFFFFFFFFFFFFFFFFFFFFFFFFDFFFDDFDDDDDADDDDADAAAASZSCSZZZCCCCZCCVCVVVVVVVNNNNNNNN7N8N78688676757727444111133>%GGGGGGGG",
"GGGGGGGFFFFFFFFFFFFFFFFFFFFFFFFFFFFFFFFDFDDDDFDDFADDAAASASAZZSCZZCCZZZCCCCVCVCVVCNNNNNNmNNNN7NN78888677775422411113>3>***GGGGGGG",
"GGGGGGGFFFFFFFFFFFFFFFFFFFFFFFFFFFFFFDFFDFFDDDDDADAAAAAZAZZSSZZZZZZZCCCCCCCVVVVVNNNNNNNm7N7NNN7788886777744742411333>>*>*GGGGGGG",
"GGGGGGGGFFFFFFFFFFFFFFFFFFFFFFFFFDFFFDDFDFSDSDDDSDAAAASZZSZSZZZZZCCCZCCCCVCVCVVVNVNNmNNmNN7N7N7N887877477444441133>>>>$*GGGGGGGG",
"GGGGGGGGGFFFFFFFFFFFFFFFFFFFFFFFFFFDFFDFFDDDDDDDDAAAAAAAAZSZSSCZCZZCCCCCCCVVVVVNVNNNNNNm7NN7N7N7878777574544141333><>**GGGGGGGGG",
"GGGGGGGGGGFFFFFFFFFFFFFFFFFFFFFFDFFFDDFDDFDDDDDDAAAAZAZSSZZSCZCZZCCCCCCCVVVVVVNVNNNN8N8N8N88N77787777774734411333>><**GGGGGGGGGG",
"GGGGGGGGGGGFFFFFFFFFFFFFFFFFFFFFFFDFDFDDADAAAADAAAAASAAZZSSZSCSCCCCCCCCVVVVVVNNNNNNmNNN8N7mm7NN78777774444444333><><*GGGGGGGGGGG",
"GGGGGGGGGGGGFFFFFFFFFFFFFFFFFFFFDFFDDDDDDADDDSAAAAAZSZZSZZZZCZCSCCCCCCCCVVVVNNNNNNmNNmmN7N7m777N77777774431413<33***GGGGGGGGGGGG",
"GGGGGGGGGGGGGFFFFFFFFFFFFFFFFFFFFFDFFDFDDDDADAASAAZAZZZZGGGGGGGGGGGGGGGGVVVVNNNNmNNmmmm7N7N7N777777744444433333<><*GGGGGGGGGGGGG",
"GGGGGGGGGGGGGGFFFFFFFFFFFFFFFFFFDDFDFADDADAAAAAAAASZGGGGGGGGGGGGGGGGGGGGGGGVNNNNNmmmmmNm7mN7777777774444433333;<<*GGGGGGGGGGGGGG",
"GGGGGGGGGGGGGGGFFFFFFFFFFFFFFFFFFDDDAFAADDAAAAAAAGGGGGGGGGGGGGGGGGGGGGGGGGGGGGNNNmNmmm7mN74NN777774444443133<3<<*GGGGGGGGGGGGGGG",
"GGGGGGGGGGGGGGGGFFFFFFFFFFFFFFFFFDFFFADDDAAAAZAGGGGGGGGGGGGGGGGGGGGGGGGGGGGGGGGGmNmmmm8N7777v777444444341133><<*GGGGGGGGGGGGGGGG",
"GGGGGGGGGGGGGGGGGFFFFFFFFFFFFFFFDDDADADADAAAAGGGGGGGGGGGGGGGGGGGGGGGGGGGGGGGGGGGGGmm88m77mm4N777774444331<33<<<GGGGGGGGGGGGGGGGG",
"GGGGGGGGGGGGGGGGGGFFFFFDFDFDFDDDDDDDADAAAADAGGGGGGGGGGGGGGGGGGGGGGGGGGGGGGGGGGGGGGGG7mm8888777774444443333<<<<GGGGGGGGGGGGGGGGGG",
"GGGGGGGGGGGGGGGGGGFFFFDFDFDFDDFDDDDDDAADAAGGGGGGGGGGGGGGGGGGGGGGGGGGGGGGGGGGGGGGGGGGGm78777777444444333333<<<GGGGGGGGGGGGGGGGGGG",
"GGGGGGGGGGGGGGGGGGFFFFDFDFFDDFDDDAAADAAAAGGGGGGGGGGGGGGGGGGGGGGGGGGGGGGGGGGGGGGGGGGGGGG8887777744433343<3<<<<GGGGGGGGGGGGGGGGGGG",
"GGGGGGGGGGGGGGGGGFFFFFFDFDFDDDDDDDADADADGGGGGGGGGGGGGGGGGGGGGGGGGGGGGGGGGGGGGGGGGGGGGGGG847774444443333<<<<<<,GGGGGGGGGGGGGGGGGG",
"GGGGGGGGGGGGGGGGGFFFDFDFDFDFDDDDADDAAAGGGGGGGGGGGGGGGGGGGGGGGGGGGGGGGGGGGGGGGGGGGGGGGGGGG77447434<<434<<<<<<<,,GGGGGGGGGGGGGGGGG",
"GGGGGGGGGGGGGGGGDFFDFDFDFDDDDDADAAAAAGGGGGGGGGGGGGGGGGGGGGGGGGGGGGGGGGGGGGGGGGGGGGGGGGGGGG7444444444<<<<<<,,<,,GGGGGGGGGGGGGGGGG",
"GGGGGGGGGGGGGGGGFFDFDFDFDFDDADADAAAAGGGGGGGGGGGGGGGGGGGGGGGGGGGGGGGGGGGGGGGGGGGGGGGGGGGGGGG444434<<<4<<<<<<,,,,,GGGGGGGGGGGGGGGG",
"GGGGGGGGGGGGGGGFDFFDFDFDDDADDADSDAAAGGGGGGGGGGGGGGGGGGGGGGGGGGGGGGGGGGGGGGGGGGGGGGGGGGGGGGGG44344<4<<<<<<,,,,,,,GGGGGGGGGGGGGGGG",
"GGGGGGGGGGGGGGGFFDFDDFDDADDSDAAADDAGGGGGGGGGGGGGGGGGGGGGGGGGGGGGGGGGGGGGGGGGGGGGGGGGGGGGGGGGG44344,4,4,4v<,,,v,vvGGGGGGGGGGGGGGG",
"GGGGGGGGGGGGGGFFDFDFDDDDDDADDDAASSGGGGGGGGGGGGGGGGGGGGGGGGGGGGGGGGGGGGGGGGGGGGGGGGGGGGGGGGGGG333<,4,,4,,,,<v,,vvcGGGGGGGGGGGGGGG",
"GGGGGGGGGGGGGGFFFDFDDDDDDADDADAASGGGGGGGGGGGGGGGGGGGGGGGGGGGGGGGGGGGGGGGGGGGGGGGGGGGGGGGGGGGGG3344,,,,v4,,v,,vvvvcGGGGGGGGGGGGGG",
"GGGGGGGGGGGGGFFFDFDDDDDDADASDAASGGGGGGGGGGGGGGGGGGGGGGGGGGGGGGGGGGGGGGGGGGGGGGGGGGGGGGGGGGGGGGG<,,,44,,,,,,vvvvvccGGGGGGGGGGGGGG",
"GGGGGGGGGGGGGFFFFDDDDAADDDAAAAASGGGGGGGGGGGGGGGGGGGGGGGGGGGGGGGGGGGGGGGGGGGGGGGGGGGGGGGGGGGGGGG<,4,<,,,,,,,,vvvvcxGGGGGGGGGGGGGG",
"GGGGGGGGGGGGFFFFDDDDDDDDAAAAAASGGGGGGGGGGGGGGGGGGGGGGGGGGGGGGGGGGGGGGGGGGGGGGGGGGGGGGGGGGGGGGGGG,v,44,,,,v,vvvxvcccGGGGGGGGGGGGG",
"GGGGGGGGGGGGFFFFDDDAADDAAAAAASAGGGGGGGGGGGGGGGGGGGGGGGGGGGGGGGGGGGGGGGGGGGGGGGGGGGGGGGGGGGGGGGGGG4v,v,,vv,vvvvvvc@xGGGGGGGGGGGGG",
"GGGGGGGGGGGGFFFFDADDDAAAAAASSSGGGGGGGGGGGGGGGGGGGGGGGGGGGGGGGGGGGGGGGGGGGGGGGGGGGGGGGGGGGGGGGGGGG,,,v,v,vvvvvavxxxxxGGGGGGGGGGGG",
"GGGGGGGGGGGDFDDDADDADAADASASAZGGGGGGGGGGGGGGGGGGGGGGGGGGGGGGGGGGGGGGGGGGGGGGGGGGGGGGGGGGGGGGGGGGGG,,,,v,c#ccxcxxixxiGGGGGGGGGGGG",
"GGGGGGGGGGGFDDDDDADAAAAAAAAZSGGGGGGGGGGGGGGGGGGGGGGGGGGGGGGGGGGGGGGGGGGGGGGGGGGGGGGGGGGGGGGGGGGGGG,,v,vvccccccxxxii@GGGGGGGGGGGG",
"GGGGGGGGGGGDDDAAAADAAAAAZASAZGGGGGGGGGGGGGGGGGGGGGGGGGGGGGGGGGGGGGGGGGGGGGGGGGGGGGGGGGGGGGGGGGGGGG,,,vvvcccxxxxixixiGGGGGGGGGGGG",
"GGGGGGGGGGGADDADADAAAAAAAZSZZGGGGGGGGGGGGGGGGGGGGGGGGGGGGGGGGGGGGGGGGGGGGGGGGGGGGGGGGGGGGGGGGGGGGGG,vvcccccxcxxxixiiiGGGGGGGGGGG",
"GGGGGGGGGGFDADDDAAAAASASSSSAGGGGGGGGGGGGGGGGGGGGGGGGGGGGGGGGGGGGGGGGGGGGGGGGGGGGGGGGGGGGGGGGGGGGGGGcccccccxxxixxixiiiGGGGGGGGGGG",
"GGGGGGGGGGDDAAAADAAAASSSSSCZGGGGGGGGGGGGGGGGGGGGGGGGGGGGGGGGGGGGGGGGGGGGGGGGGGGGGGGGGGGGGGGGGGGGGGGvcccccxxxxxiiiiiiiGGGGGGGGGGG",
"GGGGGGGGGGADDAAAAAAAAASZSZSZGGGGGGGGGGGGGGGGGGGGGGGGGGGGGGGGGGGGGGGGGGGGGGGGGGGGGGGGGGGGGGGGGGGGGGGGccccxxxxixixiiiiuGGGGGGGGGGG",
"GGGGGGGGGGAAAAAAAAAZSZZSZZZGGGGGGGGGGGGGGGGGGGGGGGGGGGGGGGGGGGGGGGGGGGGGGGGGGGGGGGGGGGGGGGGGGGGGGGGGccxxxxxxxxiiiiiuaGGGGGGGGGGG",
"GGGGGGGGGGFFAAAAAAZAAZAZZZZGGGGGGGGGGGGGGGGGGGGGGGGGGGGGGGGGGGGGGGGGGGGGGGGGGGGGGGGGGGGGGGGGGGGGGGGGcxxxxixxxaiaiaaaupGGGGGGGGGG",
"GGGGGGGGGGFFAAAAAZZSZZZZZZZGGGGGGGGGGGGGGGGGGGGGGGGGGGGGGGGGGGGGGGGGGGGGGGGGGGGGGGGGGGGGGGGGGGGGGGGGcxxxxxiiiaiiaaauppGGGGGGGGGG",
"GGGGGGGGGGFFAZAAZSSZZZZZZZCGGGGGGGGGGGGGGGGGGGGGGGGGGGGGGGGGGGGGGGGGGGGGGGGGGGGGGGGGGGGGGGGGGGGGGGGGGxxxxixiiiiauappupGGGGGGGGGG",
"GGGGGGGGGFFFAASZAAZZZZZZZZZGGGGGGGGGGGGGGGGGGGGGGGGGGGGGGGGGGGGGGGGGGGGGGGGGGGGGGGGGGGGGGGGGGGGGGGGGGaxxxiiiiaaaauupppGGGGGGGGGG",
"GGGGGGGGGDASASASSZZZZCZZZCZGGGGGGGGGGGGGGGGGGGGGGGGGGGGGGGGGGGGGGGGGGGGGGGGGGGGGGGGGGGGGGGGGGGGGGGGGGxaxiixaaaapaaapppGGGGGGGGGG",
"GGGGGGGGGAASSZZZZZZZZZZCCCGGGGGGGGGGGGGGGGGGGGGGGGGGGGGGGGGGGGGGGGGGGGGGGGGGGGGGGGGGGGGGGGGGGGGGGGGGGxxaiiaaauaappprpyGGGGGGGGGG",
"GGGGGGGGGASSZZSZZZZZZZCZCCGGGGGGGGGGGGGGGGGGGGGGGGGGGGGGGGGGGGGGGGGGGGGGGGGGGGGGGGGGGGGGGGGGGGGGGGGGGxxaaiaaaaappppppyGGGGGGGGGG",
"GGGGGGGGGASSSZZZZZZZCCZCZCGGGGGGGGGGGGGGGGGGGGGGGGGGGGGGGGGGGGGGGGGGGGGGGGGGGGGGGGGGGGGGGGGGGGGGGGGGGxaaiiaauppppppypyGGGGGGGGGG",
"GGGGGGGGGAAZZZZZZCZCZZCCZCGGGGGGGGGGGGGGGGGGGGGGGGGGGGGGGGGGGGGGGGGGGGGGGGGGGGGGGGGGGGGGGGGGGGGGGGGGGiiaaaaapppppppdyyGGGGGGGGGG",
"GGGGGGGGGZZZZACZZZZZCCCZCCGGGGGGGGGGGGGGGGGGGGGGGGGGGGGGGGGGGGGGGGGGGGGGGGGGGGGGGGGGGGGGGGGGGGGGGGGGGaiapaappppppddpyyGGGGGGGGGG",
"GGGGGGGGGZZZZZCZZCCZCCCCCCGGGGGGGGGGGGGGGGGGGGGGGGGGGGGGGGGGGGGGGGGGGGGGGGGGGGGGGGGGGGGGGGGGGGGGGGGGGiaapaappppppppdyyGGGGGGGGGG",
"GGGGGGGGGZZZZCZZZCZCCCCCCVCGGGGGGGGGGGGGGGGGGGGGGGGGGGGGGGGGGGGGGGGGGGGGGGGGGGGGGGGGGGGGGGGGGGGGGGGGGaauappppyypdyydydGGGGGGGGGG",
"GGGGGGGGGZZZZCZZCCCZCCCCCCVGGGGGGGGGGGGGGGGGGGGGGGGGGGGGGGGGGGGGGGGGGGGGGGGGGGGGGGGGGGGGGGGGGGGGGGGGGipapppapdppyppddyGGGGGGGGGG",
"GGGGGGGGGGZZZZCCZCCCCCVCVVCGGGGGGGGGGGGGGGGGGGGGGGGGGGGGGGGGGGGGGGGGGGGGGGGGGGGGGGGGGGGGGGGGGGGGGGGGpapapppdppdyddddddGGGGGGGGGG",
"GGGGGGGGGGZZZCZCCCCCCVCVVCVGGGGGGGGGGGGGGGGGGGGGGGGGGGGGGGGGGGGGGGGGGGGGGGGGGGGGGGGGGGGGGGGGGGGGGGGGappppppppdyydpddddGGGGGGGGGG",
"GGGGGGGGGGZCZCCCCCCCCCVCVVVGGGGGGGGGGGGGGGGGGGGGGGGGGGGGGGGGGGGGGGGGGGGGGGGGGGGGGGGGGGGGGGGGGGGGGGGGpppppdpdpdydddddddGGGGGGGGGG",
"GGGGGGGGGGZZCCCCCCCCVVCVVVVGGGGGGGGGGGGGGGGGGGGGGGGGGGGGGGGGGGGGGGGGGGGGGGGGGGGGGGGGGGGGGGGGGGGGGGGGppppdpdpddpddddddGGGGGGGGGGG",
"GGGGGGGGGGCCCZCCCCCCVCVVVVNNGGGGGGGGGGGGGGGGGGGGGGGGGGGGGGGGGGGGGGGGGGGGGGGGGGGGGGGGGGGGGGGGGGGGGGGGpdpppdddpdddddddjGGGGGGGGGGG",
"GGGGGGGGGGCCCCCCCCVVVVVVVVNNGGGGGGGGGGGGGGGGGGGGGGGGGGGGGGGGGGGGGGGGGGGGGGGGGGGGGGGGGGGGGGGGGGGGGGGpppdppyypdddddddjdGGGGGGGGGGG",
"GGGGGGGGGGCCCCCCCVCVVVVVVNNNGGGGGGGGGGGGGGGGGGGGGGGGGGGGGGGGGGGGGGGGGGGGGGGGGGGGGGGGGGGGGGGGGGGGGGGypypypdddddddjjdjdGGGGGGGGGGG",
"GGGGGGGGGGGCCCCCVCVBVVVBNNNNNGGGGGGGGGGGGGGGGGGGGGGGGGGGGGGGGGGGGGGGGGGGGGGGGGGGGGGGGGGGGGGGGGGGGGGpyypdddddddddddjjdGGGGGGGGGGG",
"GGGGGGGGGGGCVCVVCVVVVVBBNNNNNGGGGGGGGGGGGGGGGGGGGGGGGGGGGGGGGGGGGGGGGGGGGGGGGGGGGGGGGGGGGGGGGGGGGGpypppddddddddjjdjdGGGGGGGGGGGG",
"GGGGGGGGGGGCCVCVVVVVVVnBNMMMMGGGGGGGGGGGGGGGGGGGGGGGGGGGGGGGGGGGGGGGGGGGGGGGGGGGGGGGGGGGGGGGGGGGGGppddpdddddddjdsjdjGGGGGGGGGGGG",
"GGGGGGGGGGGGCCVVVVVVVNNnNMNMMmGGGGGGGGGGGGGGGGGGGGGGGGGGGGGGGGGGGGGGGGGGGGGGGGGGGGGGGGGGGGGGGGGGGGyydydddddddddjjdjsGGGGGGGGGGGG",
"GGGGGGGGGGGGVCBVVBBBnNNMnnnnmnGGGGGGGGGGGGGGGGGGGGGGGGGGGGGGGGGGGGGGGGGGGGGGGGGGGGGGGGGGGGGGGGGGGpdpddddddddjdjdsdjGGGGGGGGGGGGG",
"GGGGGGGGGGGGVVVBVVNBNnMMMnmmmmmGGGGGGGGGGGGGGGGGGGGGGGGGGGGGGGGGGGGGGGGGGGGGGGGGGGGGGGGGGGGGGGGGGdpddddddjdjddjdjjjGGGGGGGGGGGGG",
"GGGGGGGGGGGGBVVBVNNNNNnMmMMmmm8GGGGGGGGGGGGGGGGGGGGGGGGGGGGGGGGGGGGGGGGGGGGGGGGGGGGGGGGGGGGGGGGGdydddddddjdsjsjjjjjGGGGGGGGGGGGG",
"GGGGGGGGGGGGGBBBNNNNnNMnMmm8mmm6GGGGGGGGGGGGGGGGGGGGGGGGGGGGGGGGGGGGGGGGGGGGGGGGGGGGGGGGGGGGGGGydydpdddsssjdsjsjjjGGGGGGGGGGGGGG",
"GGGGGGGGGGGGGBBNNNNnMnnmmbmb8b88GGGGGGGGGGGGGGGGGGGGGGGGGGGGGGGGGGGGGGGGGGGGGGGGGGGGGGGGGGGGGGGddyddddjdssssjjjjjfGGGGGGGGGGGGGG",
"GGGGGGGGGGGGGGNNNMnnmnnmbbbmb8686GGGGGGGGGGGGGGGGGGGGGGGGGGGGGGGGGGGGGGGGGGGGGGGGGGGGGGGGGGGGGydyddddsdjdjjjjjjjjfGGGGGGGGGGGGGG",
"GGGGGGGGGGGGGGNNMMnnMmmmmbb6686667GGGGGGGGGGGGGGGGGGGGGGGGGGGGGGGGGGGGGGGGGGGGGGGGGGGGGGGGGGGyyddddddddssssjjjjjfGGGGGGGGGGGGGGG",
"GGGGGGGGGGGGGGGnMNmnnmmmbm868688777GGGGGGGGGGGGGGGGGGGGGGGGGGGGGGGGGGGGGGGGGGGGGGGGGGGGGGGGGGyddsdddjdjsjjsjjjjhfGGGGGGGGGGGGGGG",
"GGGGGGGGGGGGGGGNnmmnmmmbm86866675757GGGGGGGGGGGGGGGGGGGGGGGGGGGGGGGGGGGGGGGGGGGGGGGGGGGGGGGGydydddsdssssjjjjjwjwGGGGGGGGGGGGGGGG",
"GGGGGGGGGGGGGGGGnnnmm6bb886676557572GGGGGGGGGGGGGGGGGGGGGGGGGGGGGGGGGGGGGGGGGGGGGGGGGGGGGGGdddddsssssssjjjjjhfjjGGGGGGGGGGGGGGGG",
"GGGGGGGGGGGGGGGGnnbbbm688866675745522GGGGGGGGGGGGGGGGGGGGGGGGGGGGGGGGGGGGGGGGGGGGGGGGGGGGGddddsdsssssjsjjjjjjhhGGGGGGGGGGGGGGGGG",
"GGGGGGGGGGGGGGGGGbbbb6b688665557524241GGGGGGGGGGGGGGGGGGGGGGGGGGGGGGGGGGGGGGGGGGGGGGGGGGGddddsdddssjjsshjjhjwhhGGGGGGGGGGGGGGGGG",
"GGGGGGGGGGGGGGGGGbbbb6686655557524224111GGGGGGGGGGGGGGGGGGGGGGGGGGGGGGGGGGGGGGGGGGGGGGGGpdddjdssssssjjjwjfhhfhGGGGGGGGGGGGGGGGGG",
"GGGGGGGGGGGGGGGGGGb86686655577-442411=133GGGGGGGGGGGGGGGGGGGGGGGGGGGGGGGGGGGGGGGGGGGGGGdddddjjsss0sjjjjjhjhjhGGGGGGGGGGGGGGGGGGG",
"GGGGGGGGGGGGGGGGGG8b666755555-2224-1=3>>>>GGGGGGGGGGGGGGGGGGGGGGGGGGGGGGGGGGGGGGGGGGGddddddddssjswsjjjwjjhhhhGGGGGGGGGGGGGGGGGGG",
"GGGGGGGGGGGGGGGGGG88666655557254=41133=>>>>>GGGGGGGGGGGGGGGGGGGGGGGGGGGGGGGGGGGGGGGGkzdddddjdssjssjjwjwwhhhhhhGGGGGGGGGGGGGGGGGG",
"GGGGGGGGGGGGGGGGG6666555552522214113=%=>**$*$GGGGGGGGGGGGGGGGGGGGGGGGGGGGGGGGGGGGGytyyytsdsssjtjwsswwffhhhhhghhGGGGGGGGGGGGGGGGG",
"GGGGGGGGGGGGGGGG8866665555722422113=<=%<**<$&&&GGGGGGGGGGGGGGGGGGGGGGGGGGGGGGGGGyyyystsytstss9jjswjjjjhhhhhhhghgGGGGGGGGGGGGGGGG",
"GGGGGGGGGGGGGGG66665555522522-1111=3=%%<>*$&&&&++GGGGGGGGGGGGGGGGGGGGGGGGGGGGGeyyyystttssssjj9f90swwffhhhhhhhhghgGGGGGGGGGGGGGGG",
"GGGGGGGGGGGGGG8666565552522222=3;==%%<*$&,$&&&++###@GGGGGGGGGGGGGGGGGGGGGGGryyyyesytyssss9s9jj0fwwjwhhhhhhghzggzzzGGGGGGGGGGGGGG",
"GGGGGGGGGGGGG6666555555522221111=%=>*>>$$$&&++#+###@@x@oGGGGGGGGGGGGGGGpppryyryyyedsst9ssjjjfff0wffhqhhghhhghhzhhzzGGGGGGGGGGGGG",
"GGGGGGGGGGGG6666555555-5422=1===3%%%$*$,&&+&,+##@@@@@@@iooioiouiuuuuuuprryyryyetyssttjjs9sj9f0ffwhwffhhhhgzgzzhzhzzzGGGGGGGGGGGG",
"GGGGGGGGGGG666655555-5-42121=3=;=*>*$$$$&$+:+##@#@@x@ooooooiXuXuuuurprpryreyyttttttstttjj9jjh00hwfwhhhhqhzhhzhzhzzzzzGGGGGGGGGGG",
"GGGGGGGGGG66656555555---211===;%%*$*$<$,+&+++#@#@@@@@o@iioXoouuuupruprryryeyeytdyttsjtjj9000000hwwwghghhhgzzhzhzzhzzzzGGGGGGGGGG",
"GGGGGGGGG66665555-5222--======%%**$*$$$+&&+O#O#@@@@o@iooiXiXuuuuurrrrryryeetttttstt000tj000000h0whhhwhghgggggggzzzzzzzzGGGGGGGGG",
"GGGGGGGG66655555552221--2===*%%***$$&$&+++O##@@@@x@oooooXoXuXu uurrpprryyyyetytttttjtj000w000h00hwhhghggggggzgzzzzzzzzzzGGGGGGGG",
"GGGGGGG6665555555-222--==1==%*%**$$&$$&+++++O@@@o@@iooooouuo uurrprrrreyretettdtt9jt00000000h00gqhhqwggggzzggzzzzzzzkkzzzGGGGGGG",
"GGGGGGG66655555-52-221-==%=%%%**$$$$++++#OO#@@@@oo.ooouoXXuuuururrrrrtreytttttts0t90s0t0000w0ghghhhgqgqggggzzzzzzzkkkkkkzGGGGGGG",
"GGGGGGGG5555-5-5--2-=-====%%%%$$$$++++++++@@@@.o@oXoXXXXuXu urrrrrrryrtetetttt0t99900t000ww0hhhhgqwggggggggzzzzzzzzzzzzkGGGGGGGG",
"GGGGGGGGG5555-5--212--%=%%%%%$$$$G+$++O+O@OO@@.ooo.oXoXuXu u urrrryreteytett0ttt900900000hwwhhGgqqwqggzggzgzgzzlzzzzzzkGGGGGGGGG",
"GGGGGGGGGG55---51---=%==%%%$$$$$GGG++++OOO@@.o.oooXooXXXu urr rrrererettttt9t99000900000fhhhGGGGwggqgqzgzgzzzzzzkkkkzzGGGGGGGGGG",
"GGGGGGGGGGG25-----====%%%%%$*$$GGGGGGOOO@@.O.oooooXXXuXX ur rrrrertrtete99tt9t990t0000wwfhGGGGGGGhgggggzzgzzzzzzzkkkzGGGGGGGGGGG",
"GGGGGGGGGGGG-2---===%%%%%%$$$$GGGGGGGGGO@O...ooo..XXXX   re euerrreee9ett9t999s9ff0000hfGGGGGGGGGGzzzzzzzzzzzzlkzkkkGGGGGGGGGGGG",
"GGGGGGGGGGGGG-=-====-%%%%$$$$GGGGGGGGGGGG....X.XXXXXX  uu  u eerteeye9e9e9999990ff0000GGGGGGGGGGGGGzzzzzzzzzzzlzzklGGGGGGGGGGGGG",
"GGGGGGGGGGGGGG-=--%%%%-$$$$$GGGGGGGGGGGGGGG..ooXXXX uX   r eeue eeet9ee999t99909ffhhGGGGGGGGGGGGGGGGzzzzzzzzzzzzllGGGGGGGGGGGGGG",
"GGGGGGGGGGGGGGG=%%%=%$$$$$$GGGGGGGGGGGGGGGGGGGXXXXXXX u  ee eeeeeeeeee9999999090jGGGGGGGGGGGGGGGGGGGGzzzzzzllklklGGGGGGGGGGGGGGG",
"GGGGGGGGGGGGGGGG%%%%$%$$$$GGGGGGGGGGGGGGGGGGGGGGGX X  u  e eeeeeeetee9e9999900GGGGGGGGGGGGGGGGGGGGGGGGzzzzzzlllkGGGGGGGGGGGGGGGG",
"GGGGGGGGGGGGGGGGG%%%$$$$+GGGGGGGGGGGGGGGGGGGGGGGGGGGG  ee  eeeee9ttte99999GGGGGGGGGGGGGGGGGGGGGGGGGGGGGzzzlzlklGGGGGGGGGGGGGGGGG",
"GGGGGGGGGGGGGGGGGG$%$$$$GGGGGGGGGGGGGGGGGGGGGGGGGGGGGGGGGGGGGGGGGGGGGGGGGGGGGGGGGGGGGGGGGGGGGGGGGGGGGGGGzlllzkGGGGGGGGGGGGGGGGGG",
"GGGGGGGGGGGGGGGGGGG$$$$GGGGGGGGGGGGGGGGGGGGGGGGGGGGGGGGGGGGGGGGGGGGGGGGGGGGGGGGGGGGGGGGGGGGGGGGGGGGGGGGGGzlllGGGGGGGGGGGGGGGGGGG",
"GGGGGGGGGGGGGGGGGGGG$$GGGGGGGGGGGGGGGGGGGGGGGGGGGGGGGGGGGGGGGGGGGGGGGGGGGGGGGGGGGGGGGGGGGGGGGGGGGGGGGGGGGGllGGGGGGGGGGGGGGGGGGGG",
"GGGGGGGGGGGGGGGGGGGGGGGGGGGGGGGGGGGGGGGGGGGGGGGGGGGGGGGGGGGGGGGGGGGGGGGGGGGGGGGGGGGGGGGGGGGGGGGGGGGGGGGGGGGGGGGGGGGGGGGGGGGGGGGG",
"GGGGGGGGGGGGGGGGGGGGGGGGGGGGGGGGGGGGGGGGGGGGGGGGGGGGGGGGGGGGGGGGGGGGGGGGGGGGGGGGGGGGGGGGGGGGGGGGGGGGGGGGGGGGGGGGGGGGGGGGGGGGGGGG",
"GGGGGGGGGGGGGGGGGGGGGGGGGGGGGGGGGGGGGGGGGGGGGGGGGGGGGGGGGGGGGGGGGGGGGGGGGGGGGGGGGGGGGGGGGGGGGGGGGGGGGGGGGGGGGGGGGGGGGGGGGGGGGGGG",
"GGGGGGGGGGGGGGGGGGGGGGGGGGGGGGGGGGGGGGGGGGGGGGGGGGGGGGGGGGGGGGGGGGGGGGGGGGGGGGGGGGGGGGGGGGGGGGGGGGGGGGGGGGGGGGGGGGGGGGGGGGGGGGGG",
"GGGGGGGGGGGGGGGGGGGGGGGGGGGGGGGGGGGGGGGGGGGGGGGGGGGGGGGGGGGGGGGGGGGGGGGGGGGGGGGGGGGGGGGGGGGGGGGGGGGGGGGGGGGGGGGGGGGGGGGGGGGGGGGG",
"GGGGGGGGGGGGGGGGGGGGGGGGGGGGGGGGGGGGGGGGGGGGGGGGGGGGGGGGGGGGGGGGGGGGGGGGGGGGGGGGGGGGGGGGGGGGGGGGGGGGGGGGGGGGGGGGGGGGGGGGGGGGGGGG",
"GGGGGGGGGGGGGGGGGGGGGGGGGGGGGGGGGGGGGGGGGGGGGGGGGGGGGGGGGGGGGGGGGGGGGGGGGGGGGGGGGGGGGGGGGGGGGGGGGGGGGGGGGGGGGGGGGGGGGGGGGGGGGGGG"
};
