/* XPM */
static char *_9864b106c624b5793fcafeaa38ca148[] = {
/* columns rows colors chars-per-pixel */
"64 64 59 1 ",
"  c #2E1A3F",
". c #341B3E",
"X c #3C1B3C",
"o c #441B37",
"O c #4C1C36",
"+ c #441C3A",
"@ c #4B1D3B",
"# c #541D35",
"$ c #5C1E35",
"% c #531E39",
"& c #5B1E38",
"* c #631F35",
"= c #691F33",
"- c #601F3B",
"; c #4F203F",
": c #54203D",
"> c #5C203B",
", c #652037",
"< c #6C2136",
"1 c #63213A",
"2 c #6C223A",
"3 c #732236",
"4 c #7B2336",
"5 c #732339",
"6 c #7C2439",
"7 c #1E1C4D",
"8 c #1D1E54",
"9 c #141E5E",
"0 c #1A1F59",
"q c #261B46",
"w c #2C1B44",
"e c #241D4C",
"r c #2B1E4C",
"t c #341C43",
"y c #3C1E45",
"u c #331E4A",
"i c #381E48",
"p c #231F53",
"a c #291F50",
"s c #1E2057",
"d c #16205E",
"f c #1B205A",
"g c #202057",
"h c #202058",
"j c #132163",
"k c #441F42",
"l c #4A1F40",
"z c #842537",
"x c #83263A",
"c c #8A273A",
"v c #8E283B",
"b c #92273B",
"n c #94283C",
"m c #9B2A3D",
"M c #A42B3E",
"N c #A92D3F",
"B c #AD2D40",
"V c #B22F42",
"C c None",
/* pixels */
"CCCCCCCCCCCCCCCCCCCCCCCCCCCCCCCCCCCCCCCCCCCCCCCCCCCCCCCCCCCCCCCC",
"CCCCCCCCCCCCCCCCCCCCCCCCCCCCCCCCCCCCCCCCCCCCCCCCCCCCCCCCCCCCCCCC",
"CCCCCCCCCCCCCCCCCCCCCCCCCCCCCCCCCCCCCCCCCCCCCCCCCCCCCCCCCCCCCCCC",
"CCCCCCCCCCVCCCCCCCCCCCCCCCCCCCCCCCCCCCCCCCCCCCCCCCCCC6CCCCCCCCCC",
"CCCCCCCCCVVVCCCCCCCCCCCCCCCCCCCCCCCCCCCCCCCCCCCCCCCC666CCCCCCCCC",
"CCCCCCCCVVVVVCCCCCCCCCCCCVBBBBNNNMMMMmCCCCCCCCCCCCC66655CCCCCCCC",
"CCCCCCCVVVVVVVCCCCCCCCBBBBBBBBMBMMMMMMmmnCCCCCCCCCxx65552CCCCCCC",
"CCCCCCVVVVVVVVVCCCCCVVVVBBBBBMNMMMMMmmmmmmnnCCCCCx66655522CCCCCC",
"CCCCCVVVVVVVVVVVCCVVVBBBBNBBBMMMMMMMmmmmnnnvvxCCz666355<21*CCCCC",
"CCCCVVVVVVVVVVVVVBVVVBBBBBBNMMBBMMMmmmmnnvvvvxxxx66555<221,$CCCC",
"CCCVVVVVVVVVVVVVVVVVBVBBNBBMMBBmmmmmmmnnvvvcvxxx6655522,1-1>CCCC",
"CCCCVVVVVVVVVVVVVVBVBBBBBMMBMMMMBBmmmnnnvvccxxx6655352<11-&&CCCC",
"CCCCCVVVVVVVVVVVVBVBBBBBNNNMMMMMmmmmnnnnvvcxxx66655222111>&CCCCC",
"CCCCCCVVVVVVVVVVVVBBNNBNNMMBMCCCCCmnnnvvcccxx6x5555221,1&&CCCCCC",
"CCCCCCCVVVVVVVVVBBBNBNNNMCCCCCCCCCCCCCvccxxx66565522111>>CCCCCCC",
"CCCCCCCCVVVVVVVVBBBBBNNCCCCCCCCCCCCCCCCCCxx665552221,1>>CCCCCCCC",
"CCCCCCCCCVVBVBBVBBBBMCCCCCCCCCCCCCCCCCCCCC66655522111>>CCCCCCCCC",
"CCCCCCCCCVVVVBBBBBNNCCCCCCCCCCCCCCCCCCCCCCCC55522211>>:CCCCCCCCC",
"CCCCCCCCVNNVBBBBBNNCCCCCCCCCCCCCCCCCCCCCCCCCC222211>->:CCCCCCCCC",
"CCCCCCCCVVVVVBBBMMCCCCCCCCCCCCCCCCCCCCCCCCCCCC2211>>:>:;CCCCCCCC",
"CCCCCCCVVVNNBVVNNCCCCCCCCCCCCCCCCCCCCCCCCCCCCCC11>>:>::;lCCCCCCC",
"CCCCCCCVNVVBNNMNCCCCCCCCCCCCCCCCCCCCCCCCCCCCCCC1>>>::;;;lCCCCCCC",
"CCCCCCVVVBNVBMNNCCCCCCCCCCCCCCCCCCCCCCCCCCCCCCCC>>:::;lllCCCCCCC",
"CCCCCCVVNVNNNNMCCCCCCCCCCCCCCCCCCCCCCCCCCCCCCCCC>:::;llkkkCCCCCC",
"CCCCCCVVBNNNNBMCCCCCCCCCCCCCCCCCCCCCCCCCCCCCCCCCC:;;llkkkkCCCCCC",
"CCCCCNNNBMNNNMCCCCCCCCCCCCCCCCCCCCCCCCCCCCCCCCCCC;;lllkkkyCCCCCC",
"CCCCCVNNNNBMNMCCCCCCCCCCCCCCCCCCCCCCCCCCCCCCCCCCCCllkklkikCCCCCC",
"CCCCCNNNNMMBMMCCCCCCCCCCCCCCCCCCCCCCCCCCCCCCCCCCCCllkkyyiiiCCCCC",
"CCCCCVNNBMMMMMCCCCCCCCCCCCCCCCCCCCCCCCCCCCCCCCCCCCkkkyyiiiuCCCCC",
"CCCCCVNMNMMMMCCCCCCCCCCCCCCCCCCCCCCCCCCCCCCCCCCCCCkkkyyyiuuCCCCC",
"CCCCCNNNBMMMmCCCCCCCCCCCCCCCCCCCCCCCCCCCCCCCCCCCCCkyyyiituuCCCCC",
"CCCCCNMMmMmMmCCCCCCCCCCCCCCCCCCCCCCCCCCCCCCCCCCCCCyyyiuuuurCCCCC",
"CCCCCMMMmMmmmCCCCCCCCCCCCCCCCCCCCCCCCCCCCCCCCCCCCCiyiuuuuaaCCCCC",
"CCCCCMMMMMmmmCCCCCCCCCCCCCCCCCCCCCCCCCCCCCCCCCCCCCiiuuuuauaCCCCC",
"CCCCCMMmmmmmmCCCCCCCCCCCCCCCCCCCCCCCCCCCCCCCCCCCCCiuuuurauaCCCCC",
"CCCCCMMmmmmmnnCCCCCCCCCCCCCCCCCCCCCCCCCCCCCCCCCCCCtuuuuraaaCCCCC",
"CCCCCMmmmmnnnbCCCCCCCCCCCCCCCCCCCCCCCCCCCCCCCCCCCCuuarrraaaCCCCC",
"CCCCCmmmmmnnbvCCCCCCCCCCCCCCCCCCCCCCCCCCCCCCCCCCCCuuuaaahaCCCCCC",
"CCCCCmmmmnnbvvCCCCCCCCCCCCCCCCCCCCCCCCCCCCCCCCCCCuuaaaaaahCCCCCC",
"CCCCCCnnnnnccccCCCCCCCCCCCCCCCCCCCCCCCCCCCCCCCCCCraaaaagagCCCCCC",
"CCCCCCnnbbvcczzCCCCCCCCCCCCCCCCCCCCCCCCCCCCCCCCCauaaaagaggCCCCCC",
"CCCCCCnbbbccczz6CCCCCCCCCCCCCCCCCCCCCCCCCCCCCCCCuaapgrgggCCCCCCC",
"CCCCCCCbccczzz66CCCCCCCCCCCCCCCCCCCCCCCCCCCCCCCraaaaapgggCCCCCCC",
"CCCCCCCvcczxz6646CCCCCCCCCCCCCCCCCCCCCCCCCCCCCCaapppphghCCCCCCCC",
"CCCCCCCCzzzz664553CCCCCCCCCCCCCCCCCCCCCCCCCCCCaaaappgggsCCCCCCCC",
"CCCCCCCCzzx64443<2<CCCCCCCCCCCCCCCCCCCCCCCCCCaaagphpghfCCCCCCCCC",
"CCCCCCCCCz44433<<<,,CCCCCCCCCCCCCCCCCCCCCCCCaapppppffhhCCCCCCCCC",
"CCCCCCCCC646335<2,*1>CCCCCCCCCCCCCCCCCCCCChaaappsppfhffCCCCCCCCC",
"CCCCCCCC443333<,,,*$>$%CCCCCCCCCCCCCCCCCCeaapegp8hhfffffCCCCCCCC",
"CCCCCCC444333<<,1*&&%%%@@CCCCCCCCCCCCCreraeepppg8fffffddjCCCCCCC",
"CCCCCC444333<<,1*$>%%%O@@++XXCCCCCtwwrwraeppp888sffffjdfddCCCCCC",
"CCCCC44433=<<,**$$%#%OO@+++y+.ttttuwwrreeee8p8s80fffffjjjjjCCCCC",
"CCCC444<33<=*,*$$%%#O@o+++XXy.ttwtwrweeeee88888fffd0dddjjjjjCCCC",
"CCCC4333<==**$$$%##OO@ooXyX..t.wrwrqeeae8pp888f0ffddddjjjjjjCCCC",
"CCCC333<<***$$%%#OOO@+ooX.X.ttwwwqqqeeee87880000ddddjdjjjjjjCCCC",
"CCCCC<===***$$##CCOoooXXXX...twwwrqeee78788800CC0dddjjjjjjjCCCCC",
"CCCCCC===**#$##CCCCCoXXX.... wwwqqq777778800CCCCCjjjjjjjjjCCCCCC",
"CCCCCCC**$$###CCCCCCCCX...   qwqqqeee7780CCCCCCCCCjjjjjjjCCCCCCC",
"CCCCCCCC$$$##CCCCCCCCCCCCC wwwqqqee777CCCCCCCCCCCCCjjjjjCCCCCCCC",
"CCCCCCCCC###CCCCCCCCCCCCCCCCCCCCCCCCCCCCCCCCCCCCCCCCjjjCCCCCCCCC",
"CCCCCCCCCCCCCCCCCCCCCCCCCCCCCCCCCCCCCCCCCCCCCCCCCCCCCCCCCCCCCCCC",
"CCCCCCCCCCCCCCCCCCCCCCCCCCCCCCCCCCCCCCCCCCCCCCCCCCCCCCCCCCCCCCCC",
"CCCCCCCCCCCCCCCCCCCCCCCCCCCCCCCCCCCCCCCCCCCCCCCCCCCCCCCCCCCCCCCC",
"CCCCCCCCCCCCCCCCCCCCCCCCCCCCCCCCCCCCCCCCCCCCCCCCCCCCCCCCCCCCCCCC"
};
