/* XPM */
static char *_f5fdd7062ad41cfef1ac264e3408fbc[] = {
/* columns rows colors chars-per-pixel */
"16 16 93 2 ",
"   c #311A3D",
".  c #3B1C3D",
"X  c #4F1C36",
"o  c #451C39",
"O  c #431D3C",
"+  c #4D1F3F",
"@  c #5B1C32",
"#  c #5C1D35",
"$  c #5E1F37",
"%  c #501D39",
"&  c #591F3C",
"*  c #4F203F",
"=  c #682035",
"-  c #692036",
";  c #692136",
":  c #622038",
">  c #632039",
",  c #65213C",
"<  c #6E2239",
"1  c #722135",
"2  c #742135",
"3  c #762237",
"4  c #772237",
"5  c #70233A",
"6  c #782439",
"7  c #7B243B",
"8  c #1E1C4E",
"9  c #1F1E52",
"0  c #1B1F56",
"q  c #1E1F59",
"w  c #291B42",
"e  c #2A1C47",
"r  c #231A48",
"t  c #241D4D",
"y  c #251E4E",
"u  c #2A1D4A",
"i  c #2B1F4D",
"p  c #2E1F4D",
"a  c #321C42",
"s  c #3B1F46",
"d  c #3D1E44",
"f  c #331D48",
"g  c #321F4B",
"h  c #261E50",
"j  c #271E52",
"k  c #211F54",
"l  c #221F54",
"z  c #241F55",
"x  c #281E50",
"c  c #2A1F50",
"v  c #17205C",
"b  c #1C2059",
"n  c #18205D",
"m  c #112063",
"M  c #152161",
"N  c #122164",
"B  c #451F43",
"V  c #802436",
"C  c #822538",
"Z  c #84253A",
"A  c #86263B",
"S  c #8C273A",
"D  c #8D273B",
"F  c #91273B",
"G  c #90283C",
"H  c #95293C",
"J  c #98293D",
"K  c #9B293D",
"L  c #9E2A3D",
"P  c #A02A3E",
"I  c #A22A3E",
"U  c #A42B3E",
"Y  c #A52B3E",
"T  c #A72B3F",
"R  c #A52C3E",
"E  c #A42C3F",
"W  c #A62C3F",
"Q  c #A92C3E",
"!  c #A92D3F",
"~  c #AA2C3F",
"^  c #AB2D3F",
"/  c #AB2D40",
"(  c #AD2E40",
")  c #AD2E41",
"_  c #AE2E41",
"`  c #B02D41",
"'  c #B02E41",
"]  c #B12E41",
"[  c #B22E41",
"{  c #B22F41",
"}  c #B12F42",
"|  c #B22F42",
" . c None",
/* pixels */
" . . . . . . . . . . . . . . . .",
" . .[  . . .( / T L  . . .4  . .",
" .[ [ [ ( ( / T L J G Z 7 5 :  .",
" . .} } ( ~ T  . .G A 7 5 :  . .",
" . ._ _ ~  . . . . . .5 : &  . .",
" . .( ~  . . . . . . . .& *  . .",
" .~ ~ T  . . . . . . . .* B d  .",
" .T E  . . . . . . . . . .s f  .",
" .P L  . . . . . . . . . .g i  .",
" .L H S  . . . . . . . .p c h  .",
" . .S C  . . . . . . . .c z  . .",
" . .V 3 -  . . . . . .h z b  . .",
" . .3 - $ % O  . .u t z b n  . .",
" .1 = # X o . a u t 9 0 n M N  .",
" . .@  . . .  w r 8  . . .N  . .",
" . . . . . . . . . . . . . . . ."
};
