<?xml version="1.0" standalone="no"?>
<!DOCTYPE svg PUBLIC "-//W3C//DTD SVG 20010904//EN"
 "http://www.w3.org/TR/2001/REC-SVG-20010904/DTD/svg10.dtd">
<svg version="1.0" xmlns="http://www.w3.org/2000/svg"
 width="521.000000pt" height="520.000000pt" viewBox="0 0 521.000000 520.000000"
 preserveAspectRatio="xMidYMid meet">
<metadata>
Created by potrace 1.15, written by Peter Selinger 2001-2017
</metadata>
<g transform="translate(0.000000,520.000000) scale(0.100000,-0.100000)"
fill="#000000" stroke="none">
<path d="M327 4872 c-180 -180 -327 -332 -327 -337 0 -6 121 -132 270 -280
148 -148 270 -273 270 -277 0 -4 -26 -49 -57 -100 -174 -286 -293 -626 -338
-971 -20 -155 -20 -469 0 -624 45 -345 164 -685 338 -971 31 -51 57 -96 57
-100 0 -4 -119 -126 -265 -272 -146 -146 -265 -269 -265 -275 0 -13 652 -665
665 -665 6 0 131 121 279 269 l269 269 91 -56 c263 -160 575 -274 901 -329
158 -26 602 -26 760 0 144 24 345 76 470 121 125 46 332 146 450 219 l90 56
275 -275 c151 -150 280 -274 285 -274 13 0 665 652 665 665 0 5 -124 134 -277
287 l-276 276 57 96 c173 290 286 618 331 959 20 155 20 469 0 624 -45 343
-164 686 -337 969 l-56 91 279 279 c154 153 279 283 279 289 0 13 -652 665
-665 665 -6 0 -134 -124 -285 -275 -151 -151 -278 -275 -282 -275 -4 0 -49 26
-100 57 -265 162 -576 275 -903 330 -158 26 -602 26 -760 0 -326 -55 -638
-169 -901 -329 l-91 -56 -274 274 c-151 151 -278 274 -284 274 -6 0 -157 -147
-338 -328z m2474 -607 c269 -35 497 -119 714 -262 356 -235 608 -588 710 -997
72 -287 72 -535 0 -822 -102 -409 -354 -762 -710 -997 -558 -368 -1282 -368
-1840 0 -357 236 -607 587 -711 1000 -175 694 109 1419 711 1816 332 219 740
314 1126 262z"/>
</g>
</svg>
